<svg width="30" height="30" viewBox="0 0 30 30" fill="none" xmlns="http://www.w3.org/2000/svg">
<path d="M5 2.5H25C25.3315 2.5 25.6495 2.6317 25.8839 2.86612C26.1183 3.10054 26.25 3.41848 26.25 3.75V26.25C26.25 26.5815 26.1183 26.8995 25.8839 27.1339C25.6495 27.3683 25.3315 27.5 25 27.5H5C4.66848 27.5 4.35054 27.3683 4.11612 27.1339C3.8817 26.8995 3.75 26.5815 3.75 26.25V3.75C3.75 3.41848 3.8817 3.10054 4.11612 2.86612C4.35054 2.6317 4.66848 2.5 5 2.5ZM6.25 5V25H23.75V5H6.25ZM8.75 7.5H21.25V12.5H8.75V7.5ZM8.75 15H11.25V17.5H8.75V15ZM8.75 20H11.25V22.5H8.75V20ZM13.75 15H16.25V17.5H13.75V15ZM13.75 20H16.25V22.5H13.75V20ZM18.75 15H21.25V22.5H18.75V15Z" fill="#09121F"/>
</svg>
