<svg width="30" height="30" viewBox="0 0 30 30" fill="none" xmlns="http://www.w3.org/2000/svg">
<path d="M26.25 24.9999C26.25 25.3314 26.1183 25.6493 25.8839 25.8837C25.6495 26.1182 25.3315 26.2499 25 26.2499H5C4.66848 26.2499 4.35054 26.1182 4.11612 25.8837C3.8817 25.6493 3.75 25.3314 3.75 24.9999V11.8624C3.74987 11.6719 3.79327 11.4839 3.8769 11.3127C3.96052 11.1416 4.08215 10.9918 4.2325 10.8749L14.2325 3.09735C14.4519 2.92666 14.722 2.83398 15 2.83398C15.278 2.83398 15.5481 2.92666 15.7675 3.09735L25.7675 10.8749C25.9179 10.9918 26.0395 11.1416 26.1231 11.3127C26.2067 11.4839 26.2501 11.6719 26.25 11.8624V24.9999Z" fill="#09121F"/>
</svg>
